<svg xmlns="http://www.w3.org/2000/svg" viewBox="0 0 401.68 219.94"><defs><style>.cls-1{fill:none;stroke:#5a4394;stroke-miterlimit:10;stroke-width:3px;}</style></defs><title>Ресурс 2</title><g id="Слой_2" data-name="Слой 2"><g id="Слой_1-2" data-name="Слой 1"><path class="cls-1" d="M102.86,3c66.33.31,132.63-1.45,199-1.14,58,58,66.29,144.82,99,216.83-132.34-.24-264.66.25-397,0C36.86,146.8,70.86,75.43,102.86,3Z" transform="translate(-1.5 -0.35)"/><path class="cls-1" d="M15.36,193.65c64.84,4.69,123,19.46,187-.37s122.19-5,187-.37" transform="translate(-1.5 -0.35)"/><path class="cls-1" d="M25.12,172.61c30,5.7,59.22,17.44,89.8,19.78,32.11,2.47,59.24-7.39,87.41-21.72s55.29-24.16,87.39-21.7c30.58,2.35,59.82,14.07,89.83,19.76" transform="translate(-1.5 -0.35)"/><path class="cls-1" d="M33.22,155.37c27.74,9.22,55.12,25,84.9,26.24,31.78,1.32,58.77-13.61,84.22-31.18s52.38-32.6,84.16-31.12c29.83,1.38,57.12,17,84.94,26.19" transform="translate(-1.5 -0.35)"/><path class="cls-1" d="M39.89,141.44c22.69,11,45.27,26.86,70.94,29.72,36.11,4,64.76-17.94,91.5-38.94,25.41-20,52.11-40.77,86.23-39.13,27.89,1.34,51.81,18.11,76.21,29.92" transform="translate(-1.5 -0.35)"/><path class="cls-1" d="M45.36,130.26c20.33,13,41.1,30,66.06,32.11,36.58,3.06,65.68-24.28,90.91-46.62,24.26-21.48,51.11-46.87,85.79-46.59,27.27.22,49.2,18.13,71.17,32.08" transform="translate(-1.5 -0.35)"/><path class="cls-1" d="M51.19,117.93c20.57,12.75,41.56,27.42,66.7,27.59,33.24.24,61.25-24.15,84.45-44.76,23.39-20.78,51-44.68,84.37-44.68,25.11,0,46.24,14.87,66.74,27.54" transform="translate(-1.5 -0.35)"/><path class="cls-1" d="M57.34,104.58c20.92,10.87,41.7,21.84,65.94,20.89,30.85-1.21,56-19.83,79.06-38.39,21.58-17.34,45.18-35.2,73.72-38.1,26.1-2.66,48.75,9,71.25,20.64" transform="translate(-1.5 -0.35)"/><path class="cls-1" d="M63.26,91.62C117,114.47,154.18,108,202.33,74.55c22.12-15.35,43.9-29.84,71.43-32.39,24.2-2.24,45.72,6.06,67.63,15.34" transform="translate(-1.5 -0.35)"/><path class="cls-1" d="M69,79.05c49.74,16.87,88.63,12.39,133.38-16,45-28.57,83.36-32.92,133.35-16" transform="translate(-1.5 -0.35)"/><path class="cls-1" d="M74.44,66.89c47.59,12.55,84.33,8.5,127.89-14.52,43.32-22.89,80.42-27,127.87-14.5" transform="translate(-1.5 -0.35)"/><path class="cls-1" d="M79.71,55.15c43.86,8.73,81.74,6.31,122.63-12.64S281,21.17,324.94,29.89" transform="translate(-1.5 -0.35)"/><path class="cls-1" d="M84.76,43.84c41.42,6,78.07,4,117.58-10.48s76.2-16.42,117.55-10.48" transform="translate(-1.5 -0.35)"/><path class="cls-1" d="M89.6,33c38.68,3.79,75.22,2.67,112.74-8.14s74-11.91,112.72-8.13" transform="translate(-1.5 -0.35)"/><path class="cls-1" d="M94.23,22.55c73.2,4.38,143-15.71,216.21-11.34" transform="translate(-1.5 -0.35)"/><path class="cls-1" d="M98.64,12.57C168.11,14.58,236.56,4.3,306,6.3" transform="translate(-1.5 -0.35)"/><path class="cls-1" d="M289.43,1.83c22.34,22.52,44.51,52.5,53.18,83.36,12.49,44.41,18,89.51,33.45,133.46" transform="translate(-1.5 -0.35)"/><path class="cls-1" d="M277,1.8c18.56,19.68,43.15,46,51.26,72.48,6,19.67,4.75,43.9,7.72,64.37,3.9,26.88,9.07,53.41,15.28,79.85" transform="translate(-1.5 -0.35)"/><path class="cls-1" d="M264.63,1.79C280.08,20.19,305,43.14,312.8,66.38c6.38,19,2.92,45.88,4.54,65.92q3.5,43.15,9.22,86" transform="translate(-1.5 -0.35)"/><path class="cls-1" d="M252.21,1.83C264.63,19.88,289,41.16,295.94,62c6.18,18.44,1.36,46.34,2,65.83q1.5,45.21,3.87,90.38" transform="translate(-1.5 -0.35)"/><path class="cls-1" d="M239.77,1.91c5.88,11.64,12.57,22.88,19.55,33.89,4.95,7.8,14.94,18,17.76,26.78,5.7,17.83.22,45.14.2,63.87,0,30.54-.17,61.08-.24,91.61" transform="translate(-1.5 -0.35)"/><path class="cls-1" d="M227.32,2c7.42,22.91,23,46.51,27.54,69.72,3.78,19.19.32,41.85-.1,61.25-.62,28.37-1.55,56.74-2.55,85.09" transform="translate(-1.5 -0.35)"/><path class="cls-1" d="M214.84,2.21c4.16,28.1,12.56,56.17,15.6,84.29,4.6,42.61-1.36,89.11-3.12,131.8" transform="translate(-1.5 -0.35)"/><path class="cls-1" d="M202.34,2.46V218.72" transform="translate(-1.5 -0.35)"/><path class="cls-1" d="M189.83,2.7c-4.71,43.88-12.7,88-15.64,132-1.85,27.79,1,56.69,3.17,84.42" transform="translate(-1.5 -0.35)"/><path class="cls-1" d="M177.36,2.89c-8.7,48.43-22.35,97.72-27.61,146.62-2.45,22.76.65,47.09,2.71,69.84" transform="translate(-1.5 -0.35)"/><path class="cls-1" d="M164.9,3C153.07,53.53,136,105.11,128.4,156.44c-3,20.43-.91,42.3-.76,62.94" transform="translate(-1.5 -0.35)"/><path class="cls-1" d="M152.46,3.09C138.17,54.23,117.83,107,108.65,159.32c-3.43,19.59-3.26,40.2-5.79,60" transform="translate(-1.5 -0.35)"/><path class="cls-1" d="M140,3.12C124,53.27,104.4,103.74,91.79,154.88c-5.23,21.22-8.42,43-13.68,64.25" transform="translate(-1.5 -0.35)"/><path class="cls-1" d="M127.64,3.12C101.85,74.81,77.61,146.76,53.37,219" transform="translate(-1.5 -0.35)"/><path class="cls-1" d="M115.24,3.09Q72.11,111,28.62,218.79" transform="translate(-1.5 -0.35)"/></g></g></svg>